<svg xmlns="http://www.w3.org/2000/svg" viewBox="0 0 409.62 241.09"><defs><style>.cls-1{fill:#1d1d1b;stroke:#1d1d1b;stroke-miterlimit:10;}.cls-2{fill:#9d9d9c;}.cls-3{fill:#878787;}.cls-4{font-size:22px;fill:#fff;font-family:LoveNature, Love Nature;letter-spacing:0.1em;}</style></defs><title>Asset 3</title><g id="Layer_2" data-name="Layer 2"><g id="Lag_1" data-name="Lag 1"><path class="cls-1" d="M175.78,26.69c34.07-12.62,72.12-3.81,94.38,9.17a109.25,109.25,0,0,1,13.77,9.63c22.75,18.88,31.1,42.61,33.61,50,2.34,6.84,17.41,53.3-8.69,94.19a98.27,98.27,0,0,1-24,25.62c-20.24,15.56-57.69,33.09-100.38,21.63-35.87-9.62-67.48-37.57-78.11-75.21C91,107.27,123.32,46.12,175.78,26.69Z"/><path class="cls-2" d="M279,36.33c-.55-2.28,33.12-13.58,73.29-19.29,31-4.4,53.34-7.57,56.89,0,8.23,17.57-90.78,79.54-91.6,78.42s79-50.7,71.35-67.81C380.74,9.52,279.9,40.27,279,36.33Z"/><path class="cls-3" d="M103.46,100.94c-.94-1.56-109.7,52-103.18,70.39,5.82,16.41,100.44-3.4,100.29-4.82-.13-1.21-68.81,12.06-74.25-2.89C20,146.15,104.29,102.32,103.46,100.94Z"/><text/><text class="cls-4" transform="translate(126.64 132.11)">SOLARSYSTEM</text></g></g></svg>