<svg xmlns="http://www.w3.org/2000/svg" viewBox="0 0 73.67 73.67"><defs><style>.cls-1{fill:#e2141e;}.cls-2{fill:#d4531f;}</style></defs><title>Planet3</title><g id="Layer_2" data-name="Layer 2"><circle id="base" class="cls-1" cx="36.83" cy="36.83" r="36.83"/><path class="cls-2" d="M65.91,54.75l-1.5,1.71a1.63,1.63,0,0,1-2.3.16l-.36-.32a1.63,1.63,0,0,1-.16-2.3l5.68-6.5c1-1.14,1.18-2.63.41-3.31h0c-.78-.67-2.23-.29-3.22.85L54.54,56.39a1.63,1.63,0,0,1-2.3.16l-.36-.32a1.63,1.63,0,0,1-.16-2.3l5.73-6.56c1-1.14,1.18-2.63.4-3.31h0c-.77-.68-2.22-.3-3.22.85l-1.49,1.7a1.63,1.63,0,0,1-2.3.16l-.37-.31a1.65,1.65,0,0,1-.15-2.31L56,37.65c1-1.14,1.18-2.63.4-3.31s-2.22-.29-3.22.85L43.26,46.54a1.63,1.63,0,0,1-2.3.16l-.36-.32a1.63,1.63,0,0,1-.16-2.3l5.73-6.56c1-1.14,1.18-2.63.41-3.31h0c-.78-.67-2.23-.29-3.22.85l-1.5,1.71a1.64,1.64,0,0,1-2.3.15l-.36-.31A1.64,1.64,0,0,1,39,34.3l5.68-6.5c1-1.14,1.18-2.63.41-3.3s-2.23-.3-3.23.84L32,36.69a1.63,1.63,0,0,1-2.3.16l-.37-.32a1.64,1.64,0,0,1-.15-2.3l5.73-6.56c1-1.14,1.18-2.63.4-3.31h0c-.77-.67-2.22-.29-3.22.85l-1.49,1.71a1.65,1.65,0,0,1-2.31.15l-.36-.31a1.64,1.64,0,0,1-.15-2.3L33.45,18c1-1.14,1.18-2.63.4-3.3s-2.22-.3-3.22.84L20.71,26.84a1.63,1.63,0,0,1-2.3.16l-.36-.32a1.63,1.63,0,0,1-.16-2.3l5.2-5.95c1-1.14,1.18-2.63.41-3.31s-2.23-.29-3.23.85l-1.49,1.71a1.64,1.64,0,0,1-2.3.15l-.36-.31a1.63,1.63,0,0,1-.16-2.3l5.68-6.51a2.86,2.86,0,0,0,.75-2.83,34,34,0,0,0-7.21,4.54L8.91,17.6a1.65,1.65,0,0,1-.58.42A34.15,34.15,0,0,0,62.56,59.3a34.73,34.73,0,0,0,3.36-4.56Z"/></g></svg>